<svg xmlns="http://www.w3.org/2000/svg" width="600" height="116.619" viewBox="0 0 600 116.619"><path d="M318.886 111.401l-1.846 1.229H600V111.4H318.886zm-318.56.307v1.228h282.96l-1.843-1.228H.326zM381.6 53.343c-2.207-.84-1.943-4.066-1.943-6.054v-8h15.955v8c0 1.988.31 5.214-1.946 6.054v.13h8.441v-.13c-2.253-.84-1.989-4.066-1.989-6.054V30.583c0-1.989-.264-5.215 1.989-6.054v-.134h-8.441v.134c2.256.839 1.946 4.065 1.946 6.1v5.479h-15.955v-5.48c0-2.034-.264-5.26 1.943-6.1v-.133h-8.395v.134c2.253.839 1.946 4.065 1.946 6.054v16.706c0 1.988.264 5.214-1.946 6.054v.13h8.395v-.13zm41.319.84c8.797 0 16.265-6.541 16.265-15.557 0-7.955-6.54-15.025-15.824-14.982-9.277-.222-16.57 6.805-16.57 15.204 0 9.058 7.38 15.334 16.129 15.334zm.134-27.355c6.984 0 11.092 6.23 11.092 12.683 0 6.583-4.284 11.49-11.004 11.49-6.939 0-11.312-6.364-11.312-12.552 0-6.674 4.373-11.621 11.224-11.621zm7.115-3.935l-7.115-6.763-7.292 6.763c2.652-.046 5.127-1.195 7.292-2.652 2.165 1.372 4.51 2.652 7.115 2.652zm23.014 30.45c-2.34-1.325-2.298-3.092-2.298-5.57V27.841a17.934 17.934 0 0 1 3.092-.264c3.536 0 6.276 1.547 6.276 5.436 0 4.242-4.108 6.587-7.912 6.809 1.019.483 2.123.617 3.23.617 4.992 0 9.72-3.226 9.72-8.31 0-4.95-4.375-7.733-10.119-7.733h-10.74v.13c2.21.885 1.946 4.112 1.946 6.1V47.29c0 1.988.265 5.257-1.988 6.054v.13h8.793v-.13zm24.47.001c-2.208-.84-1.94-4.065-1.94-6.054V30.627c0-1.989-.268-5.26 1.94-6.1v-.13h-8.393v.13c2.25.84 1.943 4.066 1.943 6.1V47.29c0 1.989.264 5.257-1.943 6.054v.13h8.392v-.13zm7.417-25.766h3.89v19.71c0 1.99.264 5.215-1.947 6.055v.13h8.751v-.13c-2.344-1.369-2.299-3.093-2.299-5.614V27.58h3.978c1.456 0 3.226.218 3.8 1.766h.131l1.417-5.26h-.133c-.575.267-1.284.31-2.032.31h-17.59c-.575-.088-1.15-.088-1.682-.31h-.13l-1.545 5.26h.13c1.369-1.283 3.357-1.767 5.26-1.767zm27.129 25.766c-2.12-.797-1.81-2.077-.882-4.552l2.299-6.234h11.138l2.384 6.234c1.195 3.092 1.548 3.579-.618 4.552v.13h9.059v-.13c-2.518-1.283-3.315-3.759-4.33-6.276l-9.192-22.672h-6.985v.13c2.123.667 1.283 2.522.666 4.112l-7.383 18.43c-.973 2.517-1.724 4.993-4.287 6.276v.13h8.13v-.13zm6.942-25.193l4.33 11.138h-8.706l4.376-11.138zm21.738 2.43v11.801c0 3.18-.088 6.143 2.256 8.706 1.989 2.168 5.081 3.095 7.997 3.095 3.096 0 6.717-1.06 8.663-3.624v2.916h6.498v-.13c-2.256-.84-1.991-4.066-1.991-6.055V30.627c0-2.034-.265-5.26 1.991-6.1l-.045-.13h-8.399v.13c2.21.84 1.946 4.066 1.946 6.054v13.306c0 1.588.046 2.694-.927 4.02-1.46 2.077-3.977 3.093-6.452 3.093-4.556 0-7.028-2.74-7.028-8.618V30.581c0-1.988-.264-5.215 1.943-6.054v-.13h-8.395v.13c2.253.84 1.943 4.066 1.943 6.054zm36.59 22.762c-2.698-1.061-1.372-2.962-.31-4.376l6.145-8.13 7.38 11.092c.307.398 1.06 1.545 2.873 1.545h5.081c-2.52-.928-3.889-3.357-5.306-5.48l-7.067-10.518 10.029-13.081h-8.089v.134c3.008.353 1.506 2.74.402 4.242l-4.379 5.92-6.404-9.235c-.444-.708-.842-1.061-2.213-1.061h-5.127c1.858.84 3.095 2.609 4.245 4.288l6.41 9.28-12.245 15.38v.13h8.575v-.13zM373.95 96.309v.13h10.606c9.9 0 16.575-6.096 16.575-14.805 0-8.794-6.276-14.273-16.353-14.273H373.95v.134c2.253.66 1.946 3.886 1.946 5.92v16.66c0 2.61.264 4.732-1.946 6.234zm6.452-25.28c1.329-.308 2.652-.487 3.977-.487 7.38 0 11.713 3.889 11.713 11.625 0 7.644-5.877 11.092-12.464 11.092-1.103 0-2.165-.088-3.226-.31v-21.92zm29.163 25.279v.134h18.43l1.99-5.793h-.135c-2.207 1.946-5.257 2.877-8.176 2.609l-5.61-.53V82.254h3.268c1.372 0 3.227-.042 3.935 1.238h.13v-4.686h-.13c-.532.268-1.237.268-1.946.268h-5.257V70.85c1.414-.265 2.958-.307 4.506-.307 2.034 0 3.847.176 5.215 1.766h.134v-5.169h-.134c-.572.307-1.326.219-2.077.219h-14.143v.134c2.257.839 1.99 4.065 1.99 6.1v16.66c0 1.988.267 5.26-1.99 6.054zm64.989 0c-2.345-1.325-2.296-3.092-2.296-5.567V70.806a17.898 17.898 0 0 1 3.09-.262c3.536 0 6.276 1.545 6.276 5.434 0 4.242-4.108 6.586-7.91 6.808 1.016.484 2.123.618 3.227.618 4.993 0 9.721-3.227 9.721-8.31 0-4.948-4.375-7.734-10.12-7.734h-10.736v.134c2.207.882 1.94 4.108 1.94 6.1v16.66c0 1.989.267 5.258-1.989 6.054v.134h8.797v-.134zm29.422-24.704l-7.38 18.43c-.973 2.517-1.724 4.992-4.288 6.276v.13h8.134v-.13c-2.122-.797-1.812-2.08-.885-4.552l2.3-6.234h11.134l2.387 6.234c1.195 3.092 1.548 3.579-.62 4.552v.13h9.061v-.13c-2.517-1.284-3.314-3.759-4.33-6.277l-9.192-22.671h-6.984v.13c2.122.663 1.283 2.521.663 4.112zm7.735 10.651h-8.705l4.372-11.138 4.333 11.138zm26.733-.928l4.066 6.23 5.394 6.675c1.326 1.635 2.782 2.21 5.124 2.21h4.068c-2.52-1.593-5.303-3.889-7.16-6.188l-6.365-8c3.625-.84 7.027-3.89 7.027-7.778 0-4.02-3.226-7.116-9.146-7.116h-10.521v.134c2.256.84 1.946 4.066 1.946 6.1v16.66c0 1.989.31 5.258-1.946 6.054v.134h8.44v-.134c-2.253-.796-1.988-4.022-1.988-6.054V70.456c1.016-.18 1.989-.31 3.007-.356 2.962-.134 5.702 1.724 5.702 4.905 0 4.154-4.111 5.792-7.648 6.322zM568.4 67.493v-.134h-8.399v.134c2.254.84 1.946 4.066 1.946 6.1v16.66c0 1.989.265 5.26-1.946 6.057v.131h8.399v-.13c-2.21-.843-1.946-4.07-1.946-6.058v-16.66c0-1.989-.265-5.26 1.946-6.1zm16.869 26.473c-3.445 0-7.07-1.414-9.676-3.67l1.28 5.525c2.521.927 5.215 1.326 7.912 1.326 6.894 0 11.844-4.418 11.844-9.147 0-8.176-15.204-8.088-15.204-14.142 0-3.05 3.184-4.023 5.702-4.023 2.472 0 5.215 1.018 6.939 2.785v-4.996c-2.123-.66-4.376-.97-6.583-.97-5.395 0-11.096 2.12-11.096 7.69 0 9.369 15.2 8.131 15.2 15.024 0 3.096-3.797 4.598-6.318 4.598zM7.727 54.878c-2.017-.796-1.725-2.077-.84-4.552l2.18-6.233h10.58l2.268 6.233c1.134 3.093 1.471 3.58-.587 4.552v.131h8.605v-.13c-2.393-1.284-3.147-3.76-4.114-6.277L17.086 25.93h-6.632v.131c2.016.666 1.216 2.52.63 4.111l-7.01 18.43C3.15 51.12 2.437 53.595 0 54.878v.131h7.727v-.13zm6.589-25.192l4.114 11.138h-8.27l4.156-11.138zm25.108 22.849c-3.278 0-6.72-1.414-9.196-3.667l1.217 5.525c2.393.927 4.953 1.322 7.516 1.322 6.547 0 11.251-4.418 11.251-9.146 0-8.177-14.443-8.089-14.443-14.143 0-3.05 3.022-4.023 5.415-4.023 2.35 0 4.954 1.019 6.593 2.786v-4.993c-2.016-.663-4.157-.973-6.258-.973-5.12 0-10.534 2.12-10.534 7.69 0 9.368 14.441 8.13 14.441 15.027 0 3.093-3.61 4.595-6.002 4.595zm21.611 0c-3.274 0-6.72-1.414-9.195-3.667l1.216 5.525c2.394.927 4.957 1.322 7.517 1.322 6.547 0 11.251-4.418 11.251-9.146 0-8.177-14.44-8.089-14.44-14.143 0-3.05 3.022-4.023 5.415-4.023 2.348 0 4.95 1.019 6.59 2.786v-4.993c-2.017-.663-4.157-.973-6.255-.973-5.121 0-10.54 2.12-10.54 7.69 0 9.368 14.444 8.13 14.444 15.027 0 3.093-3.61 4.595-6.003 4.595zm21.528 2.344c-2.101-.84-1.849-4.066-1.849-6.054V32.16c0-1.988-.252-5.26 1.849-6.1v-.13h-7.979v.13c2.144.84 1.849 4.066 1.849 6.1v16.664c0 1.988.252 5.257-1.849 6.054v.13h7.979v-.13zm10.78-2.344c-3.274 0-6.716-1.414-9.195-3.667l1.217 5.525c2.393.927 4.956 1.322 7.516 1.322 6.547 0 11.251-4.418 11.251-9.146 0-8.177-14.44-8.089-14.44-14.143 0-3.05 3.022-4.023 5.415-4.023 2.35 0 4.954 1.019 6.59 2.786v-4.993c-2.016-.663-4.157-.973-6.255-.973-5.12 0-10.536 2.12-10.536 7.69 0 9.368 14.44 8.13 14.44 15.027 0 3.093-3.61 4.595-6.002 4.595zm15.567-23.422h3.694v19.71c0 1.989.253 5.215-1.848 6.054v.131h8.313v-.13c-2.226-1.369-2.183-3.093-2.183-5.614v-20.15h3.776c1.387 0 3.068.218 3.613 1.766h.124l1.344-5.26h-.124c-.548.267-1.22.31-1.931.31h-16.712c-.544-.089-1.089-.089-1.593-.31h-.125l-1.472 5.26h.128c1.301-1.283 3.19-1.767 4.996-1.767zm15.742 25.896h7.724v-.13c-2.016-.797-1.722-2.078-.84-4.553l2.184-6.233h10.578l2.269 6.233c1.134 3.093 1.468 3.58-.59 4.552v.131h8.608v-.13c-2.393-1.284-3.15-3.76-4.114-6.277l-8.733-22.672h-6.632v.131c2.013.666 1.216 2.52.63 4.111l-7.012 18.43c-.922 2.518-1.64 4.993-4.072 6.276v.131zm14.316-25.323l4.114 11.138h-8.27l4.156-11.138zm24.307 25.191c-2.226-1.368-2.184-3.138-2.184-5.613V32.163l14.402 19.224c1.845 2.517 3.147 3.977 6.127 5.038V31.631c0-2.475 0-4.242 2.183-5.568v-.134h-7.386v.134c2.223 1.326 2.18 3.093 2.18 5.568v16.748l-15.365-20.415-.587-.885c-.295-.353-.462-.575-.63-1.104v-.046h-6.13v.134c2.184 1.326 2.184 3.093 2.184 5.568v17.633c0 2.475 0 4.245-2.223 5.613v.131h7.429v-.13zm38.077.838c2.184 0 4.367-.352 6.34-1.322l2.141-5.13h-.125c-2.645 1.593-5.792 2.785-8.942 2.785-6.468 0-10.664-5.79-10.664-12.284 0-6.41 4.029-10.874 9.821-10.874 2.774 0 5.462.973 7.77 2.52v-5.083c-2.479-.618-5.082-1.104-7.642-1.104-8.605 0-14.735 6.054-14.735 15.204 0 9.456 6.13 15.288 16.036 15.288zm29.257-6.494h-.125c-2.101 1.946-4.996 2.873-7.766 2.605l-5.334-.529V40.822h3.105c1.304 0 3.068-.043 3.74 1.238h.125v-4.683h-.125c-.505.264-1.177.264-1.849.264h-4.996V29.42c1.344-.261 2.813-.307 4.282-.307 1.93 0 3.655.176 4.956 1.767h.125v-5.17h-.125c-.547.31-1.262.223-1.976.223h-13.431v.13c2.14.84 1.888 4.066 1.888 6.1v16.66c0 1.989.252 5.26-1.888 6.054v.134h17.505l1.889-5.79zM9.384 83.4c1.016.483 2.12.617 3.226.617 4.993 0 9.722-3.227 9.722-8.31 0-4.948-4.376-7.733-10.12-7.733H1.472v.13c2.21.885 1.946 4.112 1.946 6.1v16.663c0 1.99.265 5.258-1.988 6.055v.133h8.793v-.133c-2.341-1.326-2.298-3.093-2.298-5.57V71.42a17.97 17.97 0 0 1 3.095-.265c3.533 0 6.276 1.548 6.276 5.437 0 4.242-4.111 6.586-7.912 6.808zm45.905-15.295l-.043-.131h-8.398v.13c2.21.843 1.946 4.07 1.946 6.055v13.303c0 1.594.043 2.697-.93 4.023-1.457 2.077-3.975 3.093-6.453 3.093-4.549 0-7.024-2.737-7.024-8.618V74.16c0-1.986-.268-5.212 1.943-6.054v-.131h-8.399v.13c2.257.843 1.946 4.07 1.946 6.055v11.801c0 3.18-.088 6.142 2.254 8.706 1.988 2.168 5.084 3.095 8 3.095 3.095 0 6.717-1.061 8.663-3.624v2.916h6.495v-.131c-2.253-.84-1.989-4.066-1.989-6.054V74.206c0-2.032-.264-5.258 1.99-6.1zm7.773 0c2.256.84 1.946 4.07 1.946 6.055v16.663c0 2.031.264 5.258-1.946 6.097v.134h7.294c3.315 0 6.806.133 9.898-1.372 2.962-1.41 5.306-4.33 5.306-7.732 0-4.33-3.226-6.985-7.203-7.824 2.518-1.104 4.418-2.783 4.418-5.744 0-3.935-3.403-6.407-9.238-6.407H63.062v.13zm6.452 2.92l2.962-.313c2.655-.265 5.48 1.328 5.48 4.378 0 3.622-4.109 4.595-6.982 4.595h-1.46v-8.66zm0 11.579l3.096-.18c3.889-.221 8.042 1.637 8.042 5.924 0 4.196-3.667 5.878-7.291 5.522l-3.847-.353V82.605zm23.77 14.317v.134h18.162l2.299-5.88h-.13c-2.211 1.857-4.817 2.872-7.825 2.696l-6.011-.398v-19.27c0-1.988-.307-5.257 1.946-6.096v-.134h-8.441v.134c2.253.84 1.988 4.065 1.988 6.097v16.663c0 1.989.265 5.257-1.988 6.054zm35.52-28.816v-.131h-8.398v.13c2.253.843 1.946 4.07 1.946 6.1V90.87c0 1.988.265 5.257-1.946 6.054v.13h8.399v-.13c-2.21-.84-1.946-4.066-1.946-6.054V74.206c0-1.99-.265-5.258 1.946-6.1zm39.014 14.143c0-9.016-7.295-14.982-16-14.982-8.706 0-16.396 6.188-16.396 15.246 0 8.752 7.027 15.25 15.645 15.25 1.237 0 2.429-.177 3.627-.444 3.4 2.697 9.721 7.69 14.094 7.69 2.08 0 4.111-.84 5.613-2.253h-.617c-5.172 0-10.165-4.111-13.835-7.426 4.862-2.253 7.869-7.866 7.869-13.081zm-16.043 12.33c-6.674 0-11.315-5.656-11.315-12.86 0-5.792 4.023-11.271 11.093-11.271 7.426 0 11.226 6.54 11.226 12.686 0 6.495-4.375 11.445-11.004 11.445zm50.192-26.473l-.043-.131h-8.398v.13c2.21.843 1.946 4.07 1.946 6.055v13.303c0 1.594.045 2.697-.93 4.023-1.457 2.077-3.975 3.093-6.45 3.093-4.555 0-7.03-2.737-7.03-8.618V74.16c0-1.986-.265-5.212 1.946-6.054v-.131h-8.396v.13c2.253.843 1.943 4.07 1.943 6.055v11.801c0 3.18-.088 6.142 2.253 8.706 1.99 2.168 5.085 3.095 8 3.095 3.096 0 6.718-1.061 8.664-3.624v2.916h6.495v-.131c-2.253-.84-1.989-4.066-1.989-6.054V74.206c0-2.032-.264-5.258 1.989-6.1zm28.324 23.16h-.131c-2.21 1.945-5.26 2.872-8.176 2.605l-5.614-.53V82.867h3.272c1.368 0 3.226-.042 3.932 1.238h.134v-4.683h-.134c-.53.265-1.235.265-1.943.265h-5.26v-8.22c1.413-.264 2.96-.31 4.509-.31 2.03 0 3.843.177 5.211 1.767h.134v-5.17h-.134c-.571.311-1.322.223-2.076.223h-14.14v.13c2.253.84 1.986 4.066 1.986 6.1v16.66c0 1.99.267 5.261-1.986 6.055v.134h18.427l1.989-5.79zm124.5-42.164c-1.532-35.567-35.236-43.257-53.353-28.884 11.09.541 19.941 10.983 19.941 23.821 0 13.182-9.326 23.87-20.832 23.87s-20.832-10.688-20.832-23.87c0-4.957 1.33-9.55 3.589-13.36 2.174 4.977 5.638 10.197 10.414 15.97-3.682 4.603-4.604 7.671-4.297 11.968 4.911-.615 6.754-3.99 7.365-9.208 5.221 4.604 13.197 6.446 18.415 6.14-1.12-9.254-8.189-16.223-19.64-11.05-3.957-5.322-7.964-10.707-10.235-16.716 3.642-4.465 8.756-7.336 14.464-7.57-5.28-3.684-10.685-5.855-15.937-6.709.635-3.783 2.074-7.84 4.65-12.276L286.968 0c-2.967 4.624-4.855 8.947-5.752 13.18-18.062-1.434-33.69 12.814-35.065 35.308.919 42.352 43.884 49.72 54.32 68.131 11.661-19.026 52.17-27.315 54.32-67.517zM276.84 24.7c-1.679 0-3.038-1.164-3.038-2.606 0-1.438 1.36-2.602 3.038-2.602 1.678 0 3.04 1.164 3.04 2.602 0 1.442-1.362 2.606-3.04 2.606zm24.551-4.446c.016-.012.034-.021.05-.033-.299-.015-.59-.055-.895-.055-.252 0-.502.036-.754.046.021.015.043.027.064.042h1.535z" fill="#006bb6"/></svg>