<svg xmlns="http://www.w3.org/2000/svg" version="1.1" xmlns:xlink="http://www.w3.org/1999/xlink" xmlns:svgjs="http://svgjs.dev/svgjs" width="1500" height="1500" viewBox="0 0 1500 1500"><rect width="1500" height="1500" fill="#ffffff"></rect><g transform="matrix(0.6666666666666666,0,0,0.6666666666666666,250,250.00028889787427)"><svg viewBox="0 0 280 280" data-background-color="#ffffff" preserveAspectRatio="xMidYMid meet" height="1500" width="1500" xmlns="http://www.w3.org/2000/svg" xmlns:xlink="http://www.w3.org/1999/xlink"><g id="tight-bounds" transform="matrix(1,0,0,1,0,-0.00008089140479228263)"><svg viewBox="0 0 280 280" height="280" width="280"><g><svg viewBox="0 0 280 280" height="280" width="280"><g><svg viewBox="0 0 280 280" height="280" width="280"><g id="textblocktransform"><svg viewBox="0 0 280 280" height="280" width="280" id="textblock"><g><svg viewBox="0 0 280 280" height="280" width="280"><g transform="matrix(1,0,0,1,92.15701719990449,90.50252531694167)"><svg viewBox="0 0 95.68596560019103 98.99494936611666" height="98.99494936611666" width="95.68596560019103"><g id="icon-0"><svg xmlns="http://www.w3.org/2000/svg" xmlns:xlink="http://www.w3.org/1999/xlink" version="1.1" x="0" y="0" viewBox="6.613999999999999 4.819999999999999 87.47399999999999 90.49900000000001" enable-background="new 0 0 100 100" xml:space="preserve" height="98.99494936611666" width="95.68596560019103" class="icon-xg-0" data-fill-palette-color="accent" id="xg-0"><path fill="#87c0cd" d="M71.257 88.855h-14.31-0.932H13.078V11.284h58.179v35.515l6.464-11.583V11.43c0-3.66-2.557-6.61-6.217-6.61H12.809c-3.659 0-6.195 2.951-6.195 6.61v77.683c0 3.659 2.536 6.206 6.195 6.206h58.695c3.66 0 6.217-2.547 6.217-6.206V67.831l-6.464 11.583V88.855z" data-fill-palette-color="accent"></path><rect x="18.619" y="21.442" fill="#87c0cd" width="36.016" height="4.617" data-fill-palette-color="accent"></rect><rect x="18.619" y="42.682" fill="#87c0cd" width="36.016" height="4.617" data-fill-palette-color="accent"></rect><rect x="18.619" y="32.523" fill="#87c0cd" width="47.098" height="4.618" data-fill-palette-color="accent"></rect><rect x="18.619" y="53.764" fill="#87c0cd" width="47.098" height="4.617" data-fill-palette-color="accent"></rect><rect x="18.619" y="63.922" fill="#87c0cd" width="36.016" height="4.617" data-fill-palette-color="accent"></rect><polygon fill="#87c0cd" points="87.599,28.092 85.848,31.141 85.092,32.457 91.583,36.183 92.338,34.868 94.088,31.819 " data-fill-palette-color="accent"></polygon><polygon fill="#87c0cd" points="60.174,74.625 60.174,82.391 66.846,78.353 89.821,38.595 83.33,34.868 " data-fill-palette-color="accent"></polygon><polygon points="24.358,74.459 23.036,73.137 21.488,74.686 19.939,73.137 18.618,74.459 20.166,76.007 18.618,77.558 19.939,78.88   21.488,77.331 23.036,78.88 24.358,77.558 22.81,76.007 " fill="#87c0cd" data-fill-palette-color="accent"></polygon><g fill="#87c0cd" data-fill-palette-color="accent"><rect x="18.589" y="80.521" width="36.077" height="1.87" fill="#87c0cd" data-fill-palette-color="accent"></rect></g></svg></g></svg></g><g id="text-0"><path d="M12.102 83.1l-5.295 15.31 10.37 3.587 4.721-13.651 2.414 0.834-4.721 13.651 11.199 3.874-0.965 2.79-26.396-9.129 6.26-18.101z" fill="#113f67" data-fill-palette-color="primary"></path><path d="M46.344 76.293c-1.137 1.672-2.541 2.92-4.213 3.745-1.671 0.826-3.44 1.167-5.305 1.024-1.865-0.143-3.645-0.79-5.338-1.942v0c-1.694-1.152-2.949-2.569-3.768-4.252-0.818-1.682-1.145-3.449-0.98-5.299 0.165-1.85 0.816-3.611 1.953-5.283v0c1.137-1.672 2.536-2.924 4.197-3.757 1.66-0.833 3.42-1.173 5.277-1.018 1.858 0.154 3.634 0.807 5.327 1.958v0c1.694 1.152 2.953 2.564 3.779 4.236 0.826 1.671 1.161 3.436 1.007 5.293-0.154 1.858-0.799 3.623-1.936 5.295zM44.265 74.879c0.838-1.232 1.309-2.528 1.415-3.888 0.105-1.36-0.172-2.667-0.833-3.92-0.66-1.253-1.649-2.328-2.969-3.226v0c-1.32-0.898-2.683-1.423-4.091-1.577-1.408-0.153-2.725 0.069-3.952 0.666-1.227 0.597-2.259 1.512-3.096 2.744v0c-0.838 1.232-1.309 2.528-1.414 3.888-0.105 1.36 0.169 2.672 0.821 3.936 0.652 1.264 1.638 2.345 2.957 3.243v0c1.32 0.898 2.687 1.418 4.103 1.56 1.415 0.142 2.736-0.085 3.963-0.683 1.227-0.597 2.259-1.512 3.096-2.743z" fill="#113f67" data-fill-palette-color="primary"></path><path d="M50.413 45.36c-0.484-1.482-0.494-2.936-0.03-4.361 0.464-1.426 1.403-2.806 2.815-4.139v0l1.89 2.002-0.521 0.437c-1.606 1.516-2.397 3.196-2.375 5.04 0.022 1.845 0.873 3.657 2.553 5.437v0l7.341 7.776-2.06 1.944-14.408-15.262 1.973-1.862z" fill="#113f67" data-fill-palette-color="primary"></path><path d="M89.559 16.218c2.341-1.206 4.527-1.479 6.557-0.819 2.03 0.66 3.722 2.302 5.074 4.927v0l5.573 10.819-2.519 1.297-5.445-10.571c-0.999-1.939-2.227-3.177-3.685-3.712-1.458-0.536-3.038-0.365-4.741 0.512v0c-1.939 0.999-3.157 2.382-3.653 4.148-0.496 1.767-0.202 3.702 0.882 5.807v0l5.043 9.791-2.519 1.297-5.445-10.571c-0.999-1.939-2.227-3.177-3.685-3.712-1.458-0.536-3.05-0.359-4.776 0.53v0c-1.915 0.987-3.127 2.366-3.635 4.139-0.508 1.773-0.22 3.712 0.863 5.817v0l5.043 9.79-2.518 1.297-9.611-18.658 2.412-1.243 1.754 3.406c0.077-1.476 0.549-2.826 1.415-4.05 0.866-1.224 2.067-2.232 3.604-3.024v0c1.561-0.804 3.085-1.17 4.573-1.099 1.488 0.071 2.851 0.611 4.089 1.62v0c0.052-1.583 0.543-3.055 1.472-4.417 0.929-1.361 2.222-2.469 3.878-3.321z" fill="#113f67" data-fill-palette-color="primary"></path><path d="M134.576 12.899c1.871 0.171 3.373 0.783 4.509 1.836 1.135 1.053 1.817 2.503 2.045 4.351v0c0.293 2.376-0.359 4.313-1.957 5.809-1.597 1.497-4.112 2.458-7.544 2.882v0l-12.751 1.575-3.423-27.72 11.959-1.477c3.089-0.381 5.561-0.057 7.417 0.973 1.856 1.031 2.924 2.681 3.205 4.952v0c0.189 1.531-0.027 2.878-0.647 4.04-0.62 1.162-1.558 2.089-2.813 2.779zM127.514 2.595l-8.831 1.09 1.243 10.059 8.83-1.091c2.244-0.277 3.92-0.92 5.029-1.928 1.108-1.008 1.562-2.33 1.36-3.967v0c-0.202-1.637-0.963-2.809-2.284-3.517-1.32-0.708-3.103-0.923-5.347-0.646zM131.291 25.366c2.482-0.306 4.304-0.96 5.467-1.961 1.163-1.001 1.633-2.4 1.412-4.195v0c-0.427-3.458-3.149-4.878-8.165-4.259v0l-9.781 1.208 1.286 10.415z" fill="#113f67" data-fill-palette-color="primary"></path><path d="M172.006 9.856l2.796 0.451-3.344 20.72-2.679-0.432 0.611-3.782c-0.939 1.142-2.108 1.957-3.507 2.445-1.399 0.488-2.926 0.599-4.58 0.332v0c-2.705-0.437-4.717-1.536-6.036-3.298-1.319-1.762-1.743-4.101-1.272-7.016v0l1.939-12.014 2.797 0.451-1.895 11.739c-0.352 2.18-0.081 3.921 0.814 5.224 0.894 1.303 2.34 2.116 4.335 2.438v0c2.18 0.352 4.007-0.034 5.482-1.157 1.475-1.123 2.403-2.866 2.784-5.229v0z" fill="#113f67" data-fill-palette-color="primary"></path><path d="M183.918 35.775l7.687-19.53 2.636 1.038-7.687 19.529zM194.622 12.502c-0.545-0.214-0.929-0.58-1.154-1.098-0.225-0.517-0.235-1.036-0.031-1.556v0c0.195-0.495 0.551-0.855 1.068-1.08 0.517-0.225 1.048-0.231 1.593-0.016v0c0.545 0.214 0.932 0.574 1.162 1.079 0.23 0.505 0.248 1.005 0.053 1.5v0c-0.214 0.545-0.58 0.929-1.098 1.155-0.517 0.225-1.048 0.231-1.593 0.016z" fill="#113f67" data-fill-palette-color="primary"></path><path d="M199.002 43.309l14.6-25.756 2.465 1.397-14.601 25.757z" fill="#113f67" data-fill-palette-color="primary"></path><path d="M243.958 41.652l2.102 1.9-19.853 21.964-2.013-1.82 2.782-3.078c-1.577 0.475-3.133 0.521-4.668 0.137-1.535-0.384-2.954-1.165-4.257-2.342v0c-1.46-1.32-2.479-2.851-3.057-4.592-0.578-1.741-0.658-3.517-0.24-5.327 0.417-1.81 1.321-3.485 2.712-5.024v0c1.391-1.539 2.967-2.607 4.726-3.205 1.759-0.597 3.529-0.691 5.311-0.282 1.782 0.409 3.403 1.274 4.863 2.593v0c1.263 1.142 2.166 2.433 2.709 3.875 0.544 1.442 0.686 2.96 0.428 4.555v0zM219.914 56.709c1.085 0.981 2.295 1.617 3.628 1.907 1.333 0.291 2.67 0.2 4.012-0.273 1.342-0.473 2.547-1.301 3.617-2.485v0c1.07-1.184 1.773-2.467 2.109-3.85 0.335-1.382 0.291-2.722-0.133-4.019-0.423-1.297-1.178-2.436-2.263-3.417v0c-1.105-0.999-2.324-1.644-3.657-1.934-1.333-0.291-2.67-0.2-4.012 0.273-1.342 0.473-2.547 1.301-3.617 2.485v0c-1.07 1.184-1.773 2.467-2.109 3.85-0.335 1.382-0.291 2.722 0.133 4.019 0.423 1.297 1.187 2.445 2.292 3.443z" fill="#113f67" data-fill-palette-color="primary"></path><path d="M252.359 85.575l-0.764 0.435-9.373-14.845c-1.759 1.3-2.802 2.949-3.128 4.949-0.326 1.999 0.128 3.977 1.364 5.934v0c0.696 1.102 1.532 1.99 2.507 2.663 0.976 0.674 2.059 1.106 3.25 1.298v0l-0.699 2.33c-1.442-0.191-2.783-0.72-4.024-1.589-1.24-0.868-2.308-2.011-3.203-3.428v0c-1.15-1.822-1.782-3.681-1.893-5.576-0.112-1.896 0.27-3.67 1.145-5.324 0.875-1.654 2.178-3.027 3.91-4.121v0c1.732-1.094 3.522-1.697 5.37-1.809 1.848-0.113 3.569 0.247 5.165 1.079 1.596 0.833 2.912 2.07 3.948 3.713v0c1.037 1.642 1.585 3.357 1.644 5.144 0.059 1.787-0.357 3.482-1.249 5.083-0.892 1.601-2.215 2.956-3.97 4.064zM253.876 72.583c-1.079-1.709-2.53-2.799-4.352-3.268-1.822-0.469-3.66-0.229-5.514 0.721v0l7.946 12.584c1.655-1.265 2.662-2.821 3.022-4.668 0.359-1.847-0.008-3.637-1.102-5.369z" fill="#113f67" data-fill-palette-color="primary"></path><path d="M264.429 98.296c1.552 0.141 2.892 0.706 4.018 1.697 1.126 0.99 2.023 2.397 2.689 4.221v0l-2.586 0.945-0.195-0.651c-0.758-2.074-1.988-3.465-3.691-4.174-1.703-0.709-3.704-0.643-6.003 0.197v0l-10.045 3.669-0.972-2.661 19.714-7.202 0.931 2.549z" fill="#113f67" data-fill-palette-color="primary"></path><path d="M41.632 194.213l-5.689-16.208-10.975 3.852 5.072 14.448-2.56 0.899-5.072-14.448-11.85 4.159-1.037-2.955 27.936-9.806 6.726 19.164z" fill="#113f67" data-fill-palette-color="primary"></path><path d="M28.607 222.771c-1.213-1.765-1.906-3.632-2.081-5.601-0.171-1.964 0.172-3.842 1.03-5.634 0.862-1.787 2.187-3.294 3.974-4.522v0c1.792-1.231 3.674-1.927 5.646-2.088 1.981-0.159 3.852 0.198 5.612 1.07 1.765 0.877 3.253 2.198 4.466 3.964v0c1.216 1.77 1.916 3.634 2.098 5.59 0.186 1.962-0.156 3.831-1.025 5.606-0.864 1.772-2.193 3.273-3.985 4.505v0c-1.787 1.228-3.665 1.929-5.635 2.104-1.969 0.175-3.842-0.172-5.617-1.042-1.772-0.864-3.266-2.182-4.483-3.952zM30.802 221.263c0.896 1.305 1.994 2.269 3.295 2.892 1.304 0.629 2.701 0.86 4.19 0.691 1.495-0.172 2.939-0.737 4.332-1.693v0c1.398-0.96 2.442-2.106 3.134-3.436 0.692-1.33 0.977-2.717 0.857-4.159-0.116-1.437-0.622-2.808-1.518-4.113v0c-0.893-1.299-1.991-2.263-3.295-2.892-1.3-0.624-2.701-0.86-4.201-0.708-1.497 0.157-2.945 0.716-4.343 1.677v0c-1.392 0.957-2.433 2.107-3.123 3.452-0.68 1.347-0.962 2.739-0.846 4.176 0.12 1.443 0.626 2.813 1.518 4.113z" fill="#113f67" data-fill-palette-color="primary"></path><path d="M59.68 231.367c1.534-0.602 3.072-0.704 4.613-0.304 1.537 0.404 3.054 1.311 4.551 2.718v0l-1.996 2.122-0.496-0.521c-1.705-1.604-3.532-2.336-5.48-2.196-1.953 0.145-3.817 1.162-5.594 3.051v0l-7.763 8.255-2.187-2.057 15.239-16.205 2.093 1.968z" fill="#113f67" data-fill-palette-color="primary"></path><path d="M100.687 250.712c2.487 1.272 4.076 2.984 4.767 5.137 0.682 2.156 0.311 4.629-1.115 7.418v0l-5.872 11.484-2.673-1.367 5.74-11.226c1.051-2.055 1.358-3.877 0.923-5.466-0.444-1.586-1.569-2.841-3.374-3.764v0c-2.061-1.054-4.004-1.248-5.83-0.583-1.826 0.665-3.311 2.116-4.456 4.354v0l-5.313 10.391-2.674-1.367 5.74-11.226c1.051-2.055 1.355-3.878 0.915-5.47-0.438-1.583-1.575-2.844-3.41-3.783v0c-2.031-1.038-3.968-1.23-5.812-0.574-1.838 0.659-3.329 2.107-4.474 4.345v0l-5.313 10.391-2.673-1.366 10.127-19.806 2.557 1.307-1.848 3.615c1.322-0.848 2.777-1.276 4.366-1.285 1.588-0.009 3.197 0.402 4.825 1.234v0c1.658 0.848 2.917 1.936 3.776 3.264 0.863 1.322 1.24 2.826 1.133 4.512v0c1.394-0.93 2.965-1.416 4.71-1.457 1.746-0.041 3.499 0.388 5.258 1.288z" fill="#113f67" data-fill-palette-color="primary"></path><path d="M137.216 265.234c1.887 0.645 3.284 1.653 4.191 3.022 0.908 1.363 1.249 3.025 1.023 4.988v0c-0.29 2.524-1.445 4.356-3.464 5.496-2.02 1.147-4.849 1.511-8.489 1.092v0l-13.537-1.556 3.381-29.413 12.695 1.459c3.277 0.377 5.742 1.326 7.394 2.849 1.658 1.529 2.349 3.497 2.073 5.901v0c-0.187 1.625-0.745 2.96-1.676 4.005-0.93 1.044-2.127 1.764-3.591 2.157zM132.513 252.865l-9.375-1.078-1.227 10.673 9.375 1.078c2.378 0.273 4.264 0.028 5.657-0.735 1.393-0.764 2.19-2.014 2.389-3.752v0c0.2-1.738-0.292-3.136-1.475-4.196-1.184-1.053-2.966-1.717-5.344-1.99zM130.722 277.26c2.636 0.303 4.676 0.086 6.12-0.652 1.451-0.744 2.286-2.067 2.504-3.97v0c0.422-3.673-2.029-5.816-7.354-6.428v0l-10.375-1.193-1.271 11.05z" fill="#113f67" data-fill-palette-color="primary"></path><path d="M170.236 254.469l2.969-0.508 3.756 21.925-2.842 0.487-0.685-4.002c-0.552 1.464-1.443 2.683-2.673 3.656-1.238 0.968-2.732 1.601-4.482 1.901v0c-2.864 0.491-5.259 0.078-7.185-1.238-1.925-1.31-3.151-3.508-3.68-6.596v0l-2.178-12.713 2.96-0.507 2.127 12.418c0.395 2.307 1.263 3.964 2.602 4.969 1.345 0.998 3.076 1.315 5.193 0.952v0c2.301-0.394 4-1.407 5.096-3.038 1.09-1.631 1.421-3.698 0.993-6.202v0z" fill="#113f67" data-fill-palette-color="primary"></path><path d="M192.792 270.038l-8.287-20.644 2.786-1.118 8.287 20.643zM184.098 244.312c-0.574 0.23-1.133 0.229-1.678-0.004-0.554-0.236-0.941-0.629-1.161-1.178v0c-0.211-0.525-0.196-1.061 0.042-1.608 0.23-0.551 0.632-0.942 1.207-1.172v0c0.58-0.233 1.14-0.239 1.68-0.019 0.549 0.224 0.928 0.598 1.139 1.123v0c0.23 0.574 0.227 1.138-0.009 1.691-0.233 0.545-0.639 0.934-1.22 1.167z" fill="#113f67" data-fill-palette-color="primary"></path><path d="M209.726 261.555l-15.46-27.31 2.613-1.479 15.46 27.31z" fill="#113f67" data-fill-palette-color="primary"></path><path d="M217.723 215.052l2.234-2.006 20.969 23.349-2.138 1.919-2.939-3.273c0.327 1.718 0.201 3.364-0.378 4.939-0.57 1.575-1.547 2.985-2.933 4.229v0c-1.554 1.395-3.279 2.301-5.175 2.717-1.902 0.421-3.784 0.31-5.647-0.332-1.859-0.637-3.524-1.774-4.995-3.411v0c-1.471-1.638-2.423-3.415-2.857-5.331-0.438-1.921-0.342-3.8 0.289-5.636 0.626-1.831 1.715-3.444 3.269-4.839v0c1.341-1.204 2.802-2.016 4.383-2.435 1.581-0.41 3.197-0.391 4.849 0.055v0zM230.944 242.061c1.158-1.04 1.962-2.245 2.412-3.615 0.455-1.374 0.508-2.794 0.158-4.258-0.354-1.469-1.096-2.833-2.224-4.089v0c-1.133-1.262-2.409-2.145-3.828-2.65-1.419-0.505-2.835-0.604-4.25-0.298-1.41 0.301-2.694 0.971-3.852 2.011v0c-1.173 1.053-1.987 2.267-2.442 3.641-0.45 1.37-0.503 2.789-0.158 4.258 0.35 1.464 1.091 2.828 2.225 4.089v0c1.129 1.257 2.405 2.14 3.827 2.65 1.424 0.5 2.84 0.6 4.251 0.298 1.415-0.305 2.709-0.985 3.881-2.037z" fill="#113f67" data-fill-palette-color="primary"></path><path d="M252.556 200.174l0.762 0.531-9.98 15.713c2.046 1.095 4.1 1.347 6.161 0.757 2.064-0.595 3.754-1.929 5.069-4v0c0.742-1.168 1.213-2.369 1.415-3.604 0.205-1.241 0.13-2.474-0.226-3.701v0l2.551-0.388c0.472 1.465 0.571 2.99 0.298 4.573-0.273 1.583-0.886 3.125-1.837 4.624v0c-1.223 1.925-2.717 3.372-4.482 4.338-1.764 0.967-3.639 1.407-5.624 1.32-1.982-0.093-3.887-0.72-5.717-1.882v0c-1.836-1.166-3.224-2.607-4.167-4.324-0.948-1.721-1.384-3.534-1.308-5.44 0.076-1.906 0.666-3.729 1.772-5.468v0c1.102-1.735 2.495-3.036 4.181-3.904 1.685-0.868 3.499-1.236 5.441-1.105 1.936 0.127 3.833 0.78 5.691 1.96zM239.416 204.602c-1.152 1.813-1.538 3.699-1.159 5.658 0.379 1.958 1.441 3.61 3.187 4.954v0l8.461-13.321c-1.959-1.008-3.906-1.268-5.84-0.778-1.937 0.495-3.487 1.657-4.649 3.487z" fill="#113f67" data-fill-palette-color="primary"></path><path d="M251.864 183.829c-1.151-1.18-1.841-2.557-2.071-4.133-0.224-1.573 0.022-3.323 0.738-5.249v0l2.73 1.015-0.288 0.659c-0.816 2.194-0.781 4.162 0.105 5.903 0.892 1.743 2.553 3.067 4.984 3.971v0l10.621 3.948-1.046 2.814-20.851-7.751 1.001-2.692z" fill="#113f67" data-fill-palette-color="primary"></path><path d="M2.999 143.047c0-6.246 5.064-11.31 11.31-11.31 6.246 0 11.31 5.064 11.31 11.31 0 6.246-5.064 11.31-11.31 11.31-6.246 0-11.31-5.064-11.31-11.31z" fill="#113f67" data-fill-palette-color="primary"></path><path d="M254.381 143.047c0-6.246 5.064-11.31 11.31-11.31 6.246 0 11.31 5.064 11.31 11.31 0 6.246-5.064 11.31-11.31 11.31-6.246 0-11.31-5.064-11.31-11.31z" fill="#113f67" data-fill-palette-color="primary"></path></g><g id="text-1"></g></svg></g></svg></g></svg></g><g></g></svg></g><defs></defs></svg><rect width="280" height="280" fill="none" stroke="none" visibility="hidden"></rect></g></svg></g></svg>